<svg width="28" height="28" viewBox="0 0 28 28" fill="none" xmlns="http://www.w3.org/2000/svg">
<path d="M14 0C14.2652 0 14.5196 0.105357 14.7071 0.292893C14.8946 0.48043 15 0.734784 15 1V7C15 7.26522 14.8946 7.51957 14.7071 7.70711C14.5196 7.89464 14.2652 8 14 8C13.7348 8 13.4804 7.89464 13.2929 7.70711C13.1054 7.51957 13 7.26522 13 7V1C13 0.734784 13.1054 0.48043 13.2929 0.292893C13.4804 0.105357 13.7348 0 14 0ZM14 20C14.2652 20 14.5196 20.1054 14.7071 20.2929C14.8946 20.4804 15 20.7348 15 21V27C15 27.2652 14.8946 27.5196 14.7071 27.7071C14.5196 27.8946 14.2652 28 14 28C13.7348 28 13.4804 27.8946 13.2929 27.7071C13.1054 27.5196 13 27.2652 13 27V21C13 20.7348 13.1054 20.4804 13.2929 20.2929C13.4804 20.1054 13.7348 20 14 20ZM28 14C28 14.2652 27.8946 14.5196 27.7071 14.7071C27.5196 14.8946 27.2652 15 27 15H21C20.7348 15 20.4804 14.8946 20.2929 14.7071C20.1054 14.5196 20 14.2652 20 14C20 13.7348 20.1054 13.4804 20.2929 13.2929C20.4804 13.1054 20.7348 13 21 13H27C27.2652 13 27.5196 13.1054 27.7071 13.2929C27.8946 13.4804 28 13.7348 28 14ZM8 14C8 14.2652 7.89464 14.5196 7.70711 14.7071C7.51957 14.8946 7.26522 15 7 15H1C0.734784 15 0.48043 14.8946 0.292893 14.7071C0.105357 14.5196 0 14.2652 0 14C0 13.7348 0.105357 13.4804 0.292893 13.2929C0.48043 13.1054 0.734784 13 1 13H7C7.26522 13 7.51957 13.1054 7.70711 13.2929C7.89464 13.4804 8 13.7348 8 14ZM4.1 4.1C4.28753 3.91253 4.54184 3.80721 4.807 3.80721C5.07216 3.80721 5.32647 3.91253 5.514 4.1L9.76 8.344C9.94216 8.5326 10.043 8.7852 10.0407 9.0474C10.0384 9.3096 9.93323 9.56041 9.74782 9.74582C9.56241 9.93123 9.3116 10.0364 9.0494 10.0387C8.7872 10.041 8.5346 9.94016 8.346 9.758L4.1 5.514C3.91253 5.32647 3.80721 5.07216 3.80721 4.807C3.80721 4.54184 3.91253 4.28753 4.1 4.1ZM18.242 18.242C18.4295 18.0545 18.6838 17.9492 18.949 17.9492C19.2142 17.9492 19.4685 18.0545 19.656 18.242L23.9 22.486C24.0822 22.6746 24.183 22.9272 24.1807 23.1894C24.1784 23.4516 24.0732 23.7024 23.8878 23.8878C23.7024 24.0732 23.4516 24.1784 23.1894 24.1807C22.9272 24.183 22.6746 24.0822 22.486 23.9L18.242 19.656C18.0545 19.4685 17.9492 19.2142 17.9492 18.949C17.9492 18.6838 18.0545 18.4295 18.242 18.242ZM23.9 4.102C24.0869 4.28945 24.1918 4.54333 24.1918 4.808C24.1918 5.07267 24.0869 5.32655 23.9 5.514L19.656 9.76C19.4674 9.94216 19.2148 10.043 18.9526 10.0407C18.6904 10.0384 18.4396 9.93323 18.2542 9.74782C18.0688 9.56241 17.9636 9.3116 17.9613 9.0494C17.959 8.7872 18.0598 8.5346 18.242 8.346L22.486 4.102C22.6735 3.91453 22.9278 3.80921 23.193 3.80921C23.4582 3.80921 23.7125 3.91453 23.9 4.102ZM9.758 18.242C9.94547 18.4295 10.0508 18.6838 10.0508 18.949C10.0508 19.2142 9.94547 19.4685 9.758 19.656L5.514 23.9C5.3254 24.0822 5.0728 24.183 4.8106 24.1807C4.5484 24.1784 4.29759 24.0732 4.11218 23.8878C3.92677 23.7024 3.8216 23.4516 3.81933 23.1894C3.81705 22.9272 3.91784 22.6746 4.1 22.486L8.344 18.242C8.53153 18.0545 8.78584 17.9492 9.051 17.9492C9.31616 17.9492 9.57047 18.0545 9.758 18.242Z" fill="white"/>
</svg>
